<svg id="Layer_1" data-name="Layer 1" xmlns="http://www.w3.org/2000/svg" viewBox="0 0 141.73 68.03"><defs><style>.cls-1{fill:#fff;}</style></defs><title>cv</title><path class="cls-1" d="M74.73,165.54Q62.52,157,62.51,140.3a30.22,30.22,0,0,1,5.56-18.19q5.55-7.68,16.52-11.84t26.9-4.16a105.93,105.93,0,0,1,18,1.43v16.83a98.12,98.12,0,0,0-16-1.26q-13.57,0-19.76,4.28t-6.18,12.73q0,8.41,6,12.71t18.93,4.3a95.23,95.23,0,0,0,17-1.61v16.83a88.28,88.28,0,0,1-9,1.32q-4.8.47-9.48.47Q86.95,174.14,74.73,165.54Z" transform="translate(-62.51 -106.11)"/><path class="cls-1" d="M180.71,106.32h23.54L178.1,174.14H143.5l-26.15-67.82H142.6l18.85,51.28Z" transform="translate(-62.51 -106.11)"/></svg>